<?xml version="1.0" standalone="no"?>
<!DOCTYPE svg PUBLIC "-//W3C//DTD SVG 20010904//EN"
 "http://www.w3.org/TR/2001/REC-SVG-20010904/DTD/svg10.dtd">
<svg version="1.0" xmlns="http://www.w3.org/2000/svg"
 width="225.000000pt" height="225.000000pt" viewBox="0 0 225.000000 225.000000"
 preserveAspectRatio="xMidYMid meet">

<g transform="translate(0.000000,225.000000) scale(0.100000,-0.100000)"
fill="#000000" stroke="none">
<path d="M810 2121 c-711 -155 -1037 -971 -629 -1572 175 -259 501 -438 795
-439 78 0 104 15 104 61 0 50 -19 61 -122 70 -53 4 -124 15 -159 24 -311 80
-555 324 -640 640 -31 114 -31 326 0 440 90 334 355 583 690 651 112 22 304
15 409 -15 154 -45 294 -133 413 -259 86 -91 148 -195 188 -313 l29 -84 52 -3
c81 -5 82 -4 59 80 -46 163 -165 358 -287 469 -124 112 -283 199 -441 241
-112 30 -346 34 -461 9z"/>
<path d="M992 1890 c-31 -13 -44 -54 -40 -127 6 -92 49 -127 106 -87 20 14 22
24 22 98 0 51 -5 88 -12 98 -17 21 -48 29 -76 18z"/>
<path d="M480 1672 c-35 -28 -29 -67 16 -113 43 -44 80 -51 109 -19 30 33 22
69 -23 112 -46 42 -69 47 -102 20z"/>
<path d="M1454 1646 c-50 -49 -53 -62 -23 -100 30 -38 67 -34 112 12 44 45 50
92 15 116 -35 25 -58 19 -104 -28z"/>
<path d="M979 1491 c-24 -19 -24 -22 -24 -204 0 -242 -12 -227 187 -227 135 0
150 2 168 20 11 11 20 31 20 45 0 14 -9 34 -20 45 -17 17 -33 20 -125 20
l-105 0 0 144 c0 138 -1 146 -22 160 -30 21 -51 20 -79 -3z"/>
<path d="M270 1170 c-11 -11 -20 -31 -20 -45 0 -47 32 -65 113 -65 89 0 117
15 117 65 0 50 -28 65 -117 65 -60 0 -77 -4 -93 -20z"/>
<path d="M1722 1174 c-40 -28 -29 -64 74 -237 126 -211 138 -227 173 -227 15
0 34 6 43 13 25 20 238 383 238 406 0 12 -9 30 -20 41 -19 19 -33 20 -253 20
-194 0 -236 -3 -255 -16z"/>
<path d="M496 691 c-45 -46 -51 -85 -16 -113 33 -27 56 -22 102 20 45 43 53
79 23 112 -29 32 -66 25 -109 -19z"/>
<path d="M1431 704 c-29 -36 -27 -48 15 -94 44 -48 75 -58 109 -36 39 26 34
73 -13 119 -46 45 -82 48 -111 11z"/>
<path d="M974 569 c-15 -17 -19 -36 -19 -100 0 -90 13 -112 66 -112 47 0 59
23 59 119 0 74 -2 84 -22 98 -31 22 -61 20 -84 -5z"/>
</g>
</svg>
