<?xml version="1.0" standalone="no"?>
<!DOCTYPE svg PUBLIC "-//W3C//DTD SVG 20010904//EN"
 "http://www.w3.org/TR/2001/REC-SVG-20010904/DTD/svg10.dtd">
<svg version="1.0" xmlns="http://www.w3.org/2000/svg"
 width="1920.000000pt" height="1920.000000pt" viewBox="0 0 1920.000000 1920.000000"
 preserveAspectRatio="xMidYMid meet">

<g transform="translate(0.000000,1920.000000) scale(0.100000,-0.100000)"
fill="#000000" stroke="none">
<path d="M1848 16920 c-407 -86 -713 -393 -806 -810 -16 -70 -17 -526 -17
-6545 l0 -6470 23 -88 c107 -423 422 -720 837 -792 81 -14 876 -15 7765 -13
l7675 3 99 27 c377 104 649 386 748 775 l23 88 0 6475 0 6475 -23 88 c-62 245
-184 440 -366 584 -116 91 -225 146 -391 196 l-70 22 -7705 2 c-7435 2 -7708
1 -7792 -17z m15495 -392 c105 -38 181 -83 256 -154 87 -82 140 -164 179 -279
l27 -80 0 -6435 c0 -6102 -1 -6438 -18 -6500 -48 -180 -177 -341 -337 -419
-47 -23 -116 -48 -155 -56 -106 -22 -15264 -22 -15370 0 -232 48 -429 238
-492 475 -17 62 -18 398 -18 6500 l0 6435 27 80 c15 44 44 109 65 144 45 75
157 185 234 228 51 30 154 67 209 76 14 2 3472 4 7685 3 7220 -1 7663 -2 7708
-18z"/>
<path d="M6731 15038 c-25 -13 -59 -40 -75 -61 l-31 -39 -3 -774 -2 -774
-1798 0 c-1223 0 -1809 -3 -1835 -11 -47 -13 -106 -63 -123 -106 -39 -91 -1
-206 81 -252 27 -15 184 -16 1850 -21 l1820 -5 5 -4390 c5 -4156 6 -4392 22
-4422 36 -64 133 -112 201 -98 63 13 114 52 141 107 l26 52 0 4378 0 4378
2600 0 2600 0 0 -4378 0 -4378 26 -52 c27 -55 78 -94 141 -107 68 -14 165 34
201 98 16 30 17 266 22 4422 l5 4390 1820 5 c1666 5 1823 6 1850 21 82 46 120
161 81 252 -17 43 -76 93 -123 106 -26 8 -612 11 -1835 11 l-1798 0 -2 774 -3
774 -31 39 c-16 21 -50 48 -75 61 -88 46 -206 8 -253 -83 -21 -39 -21 -51 -24
-802 l-2 -763 -2600 0 -2600 0 -2 768 -3 768 -27 41 c-56 84 -163 115 -247 71z"/>
<path d="M2976 12075 c-46 -16 -89 -56 -111 -100 -13 -29 -15 -205 -15 -1574
0 -1493 1 -1543 19 -1579 22 -42 43 -63 88 -86 28 -14 116 -16 827 -16 675 0
800 2 824 14 42 22 1065 1051 1080 1086 10 24 12 253 10 1084 l-3 1054 -30 43
c-16 23 -48 52 -70 63 -40 21 -43 21 -1310 23 -1060 2 -1276 0 -1309 -12z
m2332 -1182 l2 -803 -410 0 c-348 0 -416 -2 -448 -15 -47 -20 -79 -50 -103
-97 -18 -35 -19 -64 -19 -453 l0 -415 -545 0 -545 0 0 1295 0 1295 1033 -2
1032 -3 3 -802z m-288 -1201 c0 -4 -67 -75 -150 -157 l-150 -150 0 158 0 157
150 0 c83 0 150 -3 150 -8z"/>
<path d="M13660 12078 c-51 -14 -95 -52 -119 -101 l-21 -44 2 -1545 3 -1545
28 -40 c15 -22 45 -50 67 -62 l40 -22 796 1 c763 0 797 1 832 20 46 23 1044
1023 1066 1067 14 29 16 141 16 1083 0 860 -2 1057 -14 1083 -17 43 -76 93
-123 106 -51 14 -2523 13 -2573 -1z m2320 -1183 l0 -804 -422 -3 -423 -3 -38
-24 c-21 -13 -50 -42 -65 -64 l-27 -41 -3 -423 -3 -423 -544 0 -545 0 0 1288
c0 709 3 1292 7 1295 3 4 469 7 1035 7 l1028 0 0 -805z m-430 -1350 l-155
-155 -3 142 c-1 78 0 148 2 155 4 10 42 13 158 13 l153 0 -155 -155z"/>
<path d="M8307 11760 c-46 -14 -98 -60 -118 -104 -18 -39 -19 -93 -19 -1324 0
-1135 2 -1287 15 -1320 20 -47 50 -79 97 -103 36 -18 79 -19 1328 -19 1249 0
1292 1 1328 19 47 24 77 56 97 103 13 33 15 185 15 1321 l0 1284 -23 44 c-13
24 -43 58 -66 74 l-43 30 -1291 2 c-711 1 -1305 -2 -1320 -7z m2353 -1430 l0
-1050 -1050 0 -1050 0 0 1050 0 1050 1050 0 1050 0 0 -1050z"/>
<path d="M2955 7883 c-44 -23 -65 -44 -86 -85 -18 -36 -19 -86 -19 -1578 0
-1271 2 -1546 14 -1573 17 -43 76 -93 123 -106 53 -15 1543 -15 1598 0 34 9
117 87 563 532 403 403 526 531 537 562 14 35 15 171 13 1091 l-3 1050 -24 36
c-13 19 -40 46 -59 59 l-36 24 -1295 2 c-1168 2 -1299 1 -1326 -14z m2355
-1172 l0 -800 -417 -3 c-405 -3 -419 -4 -458 -24 -49 -27 -70 -49 -90 -97 -13
-31 -15 -101 -15 -452 l0 -415 -545 0 -545 0 0 1295 0 1295 1035 0 1035 0 0
-799z m-290 -1204 c0 -1 -67 -70 -150 -152 l-150 -150 0 153 0 152 150 0 c83
0 150 -1 150 -3z"/>
<path d="M13635 7886 c-38 -17 -90 -72 -104 -109 -8 -20 -11 -504 -11 -1561
l0 -1532 23 -44 c13 -26 40 -57 65 -75 l44 -30 781 -3 c561 -2 793 0 822 8 34
10 122 93 564 533 299 299 529 536 537 554 12 27 14 205 14 1083 0 949 -2
1054 -16 1083 -23 45 -44 66 -86 88 -36 18 -81 19 -1320 19 -1052 -1 -1288 -3
-1313 -14z m2345 -1175 l0 -800 -417 -3 c-458 -3 -445 -2 -505 -65 -57 -60
-58 -66 -58 -513 l0 -410 -545 0 -545 0 0 1295 0 1295 1035 0 1035 0 0 -799z
m-425 -1351 c-82 -82 -153 -150 -157 -150 -5 0 -8 68 -8 150 l0 150 157 0 158
0 -150 -150z"/>
<path d="M8285 7711 c-48 -22 -79 -54 -100 -103 -13 -33 -15 -185 -15 -1321
l0 -1284 23 -44 c13 -24 43 -57 66 -74 l43 -30 1308 0 1308 0 44 30 c25 18 52
49 66 75 l22 44 0 1286 c0 1228 -1 1287 -19 1325 -22 48 -54 79 -103 100 -33
13 -185 15 -1320 15 -1226 0 -1285 -1 -1323 -19z m2375 -1421 l0 -1050 -1050
0 -1050 0 0 1050 0 1050 1050 0 1050 0 0 -1050z"/>
</g>
</svg>
