<svg id="visual" viewBox="0 0 900 600" width="900" height="600" xmlns="http://www.w3.org/2000/svg" xmlns:xlink="http://www.w3.org/1999/xlink" version="1.1"><path d="M352 600L370.5 592.3C389 584.7 426 569.3 434.5 554C443 538.7 423 523.3 433.7 508C444.3 492.7 485.7 477.3 502.3 461.8C519 446.3 511 430.7 507.3 415.2C503.7 399.7 504.3 384.3 512.5 369C520.7 353.7 536.3 338.3 535.8 323C535.3 307.7 518.7 292.3 509.2 277C499.7 261.7 497.3 246.3 506.7 231C516 215.7 537 200.3 528.2 184.8C519.3 169.3 480.7 153.7 450.2 138.2C419.7 122.7 397.3 107.3 395.2 92C393 76.7 411 61.3 408.3 46C405.7 30.7 382.3 15.3 370.7 7.7L359 0L900 0L900 7.7C900 15.3 900 30.7 900 46C900 61.3 900 76.7 900 92C900 107.3 900 122.7 900 138.2C900 153.7 900 169.3 900 184.8C900 200.3 900 215.7 900 231C900 246.3 900 261.7 900 277C900 292.3 900 307.7 900 323C900 338.3 900 353.7 900 369C900 384.3 900 399.7 900 415.2C900 430.7 900 446.3 900 461.8C900 477.3 900 492.7 900 508C900 523.3 900 538.7 900 554C900 569.3 900 584.7 900 592.3L900 600Z" fill="#140d3b"></path><path d="M509 600L527.5 592.3C546 584.7 583 569.3 601.5 554C620 538.7 620 523.3 609 508C598 492.7 576 477.3 556.8 461.8C537.7 446.3 521.3 430.7 532.7 415.2C544 399.7 583 384.3 596.7 369C610.3 353.7 598.7 338.3 583.7 323C568.7 307.7 550.3 292.3 552.3 277C554.3 261.7 576.7 246.3 589.3 231C602 215.7 605 200.3 593.7 184.8C582.3 169.3 556.7 153.7 562.2 138.2C567.7 122.7 604.3 107.3 603.5 92C602.7 76.7 564.3 61.3 566.5 46C568.7 30.7 611.3 15.3 632.7 7.7L654 0L900 0L900 7.7C900 15.3 900 30.7 900 46C900 61.3 900 76.7 900 92C900 107.3 900 122.7 900 138.2C900 153.7 900 169.3 900 184.8C900 200.3 900 215.7 900 231C900 246.3 900 261.7 900 277C900 292.3 900 307.7 900 323C900 338.3 900 353.7 900 369C900 384.3 900 399.7 900 415.2C900 430.7 900 446.3 900 461.8C900 477.3 900 492.7 900 508C900 523.3 900 538.7 900 554C900 569.3 900 584.7 900 592.3L900 600Z" fill="#4c3f8a"></path><path d="M757 600L743.7 592.3C730.3 584.7 703.7 569.3 686.7 554C669.7 538.7 662.3 523.3 671.3 508C680.3 492.7 705.7 477.3 722.7 461.8C739.7 446.3 748.3 430.7 736 415.2C723.7 399.7 690.3 384.3 688.5 369C686.7 353.7 716.3 338.3 730.7 323C745 307.7 744 292.3 739.5 277C735 261.7 727 246.3 716.2 231C705.3 215.7 691.7 200.3 684 184.8C676.3 169.3 674.7 153.7 684.8 138.2C695 122.7 717 107.3 713.3 92C709.7 76.7 680.3 61.3 671.3 46C662.3 30.7 673.7 15.3 679.3 7.7L685 0L900 0L900 7.7C900 15.3 900 30.7 900 46C900 61.3 900 76.7 900 92C900 107.3 900 122.7 900 138.2C900 153.7 900 169.3 900 184.8C900 200.3 900 215.7 900 231C900 246.3 900 261.7 900 277C900 292.3 900 307.7 900 323C900 338.3 900 353.7 900 369C900 384.3 900 399.7 900 415.2C900 430.7 900 446.3 900 461.8C900 477.3 900 492.7 900 508C900 523.3 900 538.7 900 554C900 569.3 900 584.7 900 592.3L900 600Z" fill="#8979e2"></path></svg>