<?xml version="1.0" standalone="no"?>
<!DOCTYPE svg PUBLIC "-//W3C//DTD SVG 20010904//EN"
 "http://www.w3.org/TR/2001/REC-SVG-20010904/DTD/svg10.dtd">
<svg version="1.0" xmlns="http://www.w3.org/2000/svg"
 width="500.000000pt" height="500.000000pt" viewBox="0 0 500.000000 500.000000"
 preserveAspectRatio="xMidYMid meet">

<g transform="translate(0.000000,500.000000) scale(0.100000,-0.100000)"
fill="#000000" stroke="none">
<path d="M2402 3230 c-40 -11 -92 -28 -116 -39 -57 -25 -153 -90 -190 -130
-24 -25 -27 -33 -16 -46 7 -8 16 -15 20 -15 5 0 34 22 66 49 88 75 216 132
328 146 l55 7 3 -48 c2 -38 7 -50 22 -52 24 -5 36 14 36 61 0 44 5 45 106 21
248 -57 438 -251 488 -496 21 -101 21 -98 -18 -98 -47 0 -66 -9 -66 -30 0 -21
19 -30 66 -30 39 0 39 3 18 -97 -55 -269 -269 -467 -546 -507 l-48 -7 0 38 c0
47 -12 66 -36 61 -15 -2 -20 -14 -22 -51 l-3 -48 -47 6 c-112 15 -237 66 -316
128 -34 27 -36 32 -22 42 24 18 19 25 -18 25 -29 0 -41 7 -69 43 -18 23 -44
59 -56 80 -14 22 -30 37 -42 37 -32 0 -23 -41 24 -111 24 -35 42 -70 39 -77
-2 -7 5 -12 16 -12 10 0 27 -10 38 -21 41 -46 159 -119 242 -150 74 -27 104
-32 202 -36 138 -6 232 11 335 60 355 170 498 593 321 946 -20 39 -37 74 -39
77 -1 4 22 8 52 8 34 1 56 6 58 14 4 9 -15 12 -70 12 -73 0 -75 1 -100 34 -61
79 -227 179 -352 211 -84 21 -251 19 -343 -5z"/>
<path d="M3590 3098 c0 -3 9 -30 19 -61 20 -56 20 -57 0 -57 -23 0 -24 -9 -2
-25 16 -12 15 -16 -5 -64 -11 -28 -19 -51 -16 -51 3 0 25 14 50 31 39 27 109
61 169 83 16 6 4 15 -63 51 -45 24 -98 56 -117 71 -19 14 -35 24 -35 22z"/>
<path d="M3360 2975 c0 -12 14 -15 71 -15 52 0 70 3 67 13 -3 7 -29 13 -71 15
-55 2 -67 0 -67 -13z"/>
<path d="M2953 2967 c-62 -15 -54 -31 11 -23 63 7 86 14 86 27 0 11 -42 10
-97 -4z"/>
<path d="M2557 2923 c-4 -3 -7 -68 -7 -144 0 -125 -2 -139 -19 -148 -10 -6
-24 -24 -31 -41 -11 -26 -10 -37 3 -68 8 -20 18 -46 22 -57 6 -18 8 -18 18 -5
7 9 25 17 41 18 17 1 40 12 52 23 22 20 30 21 129 15 59 -4 113 -10 121 -13
26 -10 64 6 64 27 0 24 -10 26 -163 39 -114 10 -120 12 -147 41 -43 46 -47 86
-16 133 31 45 32 51 7 44 -23 -6 -31 16 -31 91 0 44 -3 52 -18 52 -10 0 -22
-3 -25 -7z m43 -348 c10 -12 10 -18 0 -30 -25 -30 -57 -12 -45 25 8 24 28 26
45 5z"/>
<path d="M2762 2899 c-29 -16 -52 -36 -52 -44 0 -20 4 -19 48 8 20 13 45 26
55 30 18 7 23 22 9 31 -5 3 -32 -8 -60 -25z"/>
<path d="M1550 2855 c-10 -12 -10 -18 0 -30 11 -13 57 -15 329 -13 300 3 316
4 319 22 2 10 -2 22 -10 27 -7 5 -151 9 -319 9 -260 0 -308 -2 -319 -15z"/>
<path d="M1352 2631 c-8 -4 -12 -17 -10 -27 3 -16 14 -19 68 -22 75 -3 101 8
84 35 -8 13 -26 19 -70 21 -32 1 -65 -2 -72 -7z"/>
<path d="M1550 2625 c-7 -8 -10 -22 -6 -30 5 -13 37 -15 243 -13 224 3 238 4
241 22 2 10 -2 22 -10 27 -7 5 -113 9 -234 9 -184 0 -224 -3 -234 -15z"/>
<path d="M1282 2378 c3 -23 4 -23 173 -23 169 0 170 0 173 23 l3 22 -176 0
-176 0 3 -22z"/>
<path d="M1702 2378 c3 -22 8 -23 109 -26 84 -2 109 0 118 12 24 29 1 36 -115
36 -114 0 -115 0 -112 -22z"/>
<path d="M2505 2351 c-3 -11 -17 -36 -31 -57 -16 -24 -22 -40 -16 -46 14 -14
72 67 72 99 0 28 -16 31 -25 4z"/>
<path d="M1460 2223 c0 -5 11 -21 23 -37 32 -40 55 -26 25 15 -20 27 -48 39
-48 22z"/>
<path d="M2313 2174 c-53 -25 -68 -44 -35 -44 25 1 105 43 110 58 5 18 -16 14
-75 -14z"/>
<path d="M1595 2120 c-7 -12 43 -35 99 -45 61 -12 40 14 -29 36 -33 10 -61 19
-62 19 -1 0 -5 -5 -8 -10z"/>
<path d="M1815 2080 c-9 -15 17 -21 75 -18 32 2 55 8 58 16 5 15 -123 17 -133
2z"/>
</g>
</svg>
