<?xml version="1.0" standalone="no"?>
<!DOCTYPE svg PUBLIC "-//W3C//DTD SVG 20010904//EN"
 "http://www.w3.org/TR/2001/REC-SVG-20010904/DTD/svg10.dtd">
<svg version="1.0" xmlns="http://www.w3.org/2000/svg"
 width="225.000000pt" height="225.000000pt" viewBox="0 0 225.000000 225.000000"
 preserveAspectRatio="xMidYMid meet">

<g transform="translate(0.000000,225.000000) scale(0.100000,-0.100000)"
fill="#000000" stroke="none">
<path d="M975 2239 c-172 -22 -370 -101 -511 -207 -570 -425 -621 -1235 -108
-1722 333 -316 819 -397 1238 -206 226 103 434 307 541 531 180 375 140 825
-103 1151 -251 336 -643 504 -1057 453z m230 -209 l30 -30 3 -422 c3 -450 2
-461 -46 -498 -30 -24 -98 -26 -130 -4 -51 36 -52 42 -52 484 0 456 1 463 63
494 44 23 94 14 132 -24z m-371 -245 c45 -21 70 -67 63 -116 -6 -49 -16 -61
-83 -105 -298 -198 -341 -617 -90 -870 114 -114 241 -167 401 -167 160 0 287
53 401 167 251 253 208 672 -90 870 -67 44 -77 56 -83 105 -10 73 59 141 127
126 44 -10 138 -75 206 -143 311 -311 312 -809 4 -1120 -107 -108 -261 -192
-405 -223 -91 -19 -266 -14 -356 9 -222 59 -413 214 -513 417 -66 133 -80 196
-81 355 0 156 14 220 75 347 68 140 199 281 314 338 58 29 67 30 110 10z"/>
</g>
</svg>
