<?xml version="1.0" standalone="no"?>
<!DOCTYPE svg PUBLIC "-//W3C//DTD SVG 20010904//EN"
 "http://www.w3.org/TR/2001/REC-SVG-20010904/DTD/svg10.dtd">
<svg version="1.0" xmlns="http://www.w3.org/2000/svg"
 width="86" height="86" viewBox="0 0 600.000000 600.000000"
 preserveAspectRatio="xMidYMid meet">

<g transform="translate(0.000000,600.000000) scale(0.100000,-0.100000)"
fill="#000000" stroke="none">
<path d="M690 5990 c-122 -13 -287 -70 -273 -93 3 -6 1 -7 -6 -3 -15 10 -113
-53 -104 -67 3 -5 2 -7 -4 -4 -13 8 -95 -62 -87 -74 3 -5 0 -8 -8 -7 -7 2 -13
-6 -13 -17 -1 -11 -6 -19 -13 -18 -17 4 -86 -103 -76 -118 4 -7 3 -10 -3 -6
-14 9 -56 -89 -79 -183 -18 -72 -19 -164 -19 -2400 0 -2201 1 -2329 18 -2401
27 -115 125 -308 149 -293 5 3 7 2 6 -3 -4 -15 23 -54 34 -47 6 4 8 3 5 -3 -9
-15 59 -77 74 -68 7 5 10 4 6 -2 -9 -14 19 -37 34 -27 8 4 9 3 5 -4 -8 -14 53
-54 72 -47 7 3 11 1 8 -3 -14 -22 155 -78 279 -92 61 -8 816 -10 2370 -7 1971
3 2287 5 2333 18 29 8 51 17 48 19 -2 3 6 6 19 6 32 2 146 55 139 65 -3 5 1 6
8 4 18 -7 100 54 91 67 -3 6 -1 8 5 4 14 -8 74 43 65 56 -3 6 -1 8 5 4 13 -8
55 48 44 59 -4 5 -2 5 5 1 14 -8 36 27 25 39 -4 5 -2 5 5 1 17 -10 86 131 115
235 l23 84 0 2330 c0 2216 -1 2334 -18 2405 -21 87 -66 192 -78 184 -5 -3 -6
2 -3 10 3 9 1 16 -5 16 -6 0 -10 3 -9 8 5 14 -36 71 -46 65 -6 -3 -8 -3 -4 2
11 11 -31 67 -44 59 -6 -4 -8 -2 -4 4 8 13 -73 84 -87 75 -6 -3 -7 -1 -4 4 13
22 -209 140 -240 129 -8 -3 -12 -2 -9 3 3 5 -18 14 -47 22 -42 10 -486 13
-2347 15 -1262 1 -2324 -2 -2360 -6z m-410 -193 c0 -2 -10 -12 -22 -23 l-23
-19 19 23 c18 21 26 27 26 19z m2908 -924 c79 -6 193 -21 253 -33 60 -11 115
-18 121 -14 6 4 8 3 5 -3 -8 -12 138 -57 154 -47 7 4 10 3 5 -4 -8 -13 29 -26
46 -16 7 4 10 4 6 -1 -8 -8 205 -117 230 -118 6 0 10 -3 7 -5 -8 -9 76 -52 88
-45 5 3 7 1 3 -5 -3 -6 29 -35 75 -67 45 -32 141 -116 213 -188 72 -71 135
-129 139 -128 5 1 6 -2 3 -7 -3 -5 7 -24 23 -43 15 -19 43 -58 63 -86 19 -29
38 -50 42 -45 4 4 6 3 5 -3 -6 -17 63 -135 74 -128 6 3 7 1 3 -5 -9 -14 35
-103 47 -95 6 3 7 1 3 -5 -9 -15 24 -93 37 -85 6 3 7 1 3 -5 -8 -13 13 -94 23
-88 3 2 6 -6 7 -17 0 -12 13 -67 28 -122 40 -147 56 -286 56 -473 0 -237 -30
-420 -104 -626 -19 -54 -33 -104 -29 -109 3 -6 1 -7 -4 -4 -13 8 -46 -70 -37
-86 4 -7 4 -9 -1 -5 -10 10 -96 -141 -88 -155 4 -6 1 -7 -7 -2 -10 6 -12 4 -7
-9 4 -9 3 -15 -2 -12 -12 8 -44 -42 -36 -55 4 -5 1 -8 -6 -7 -6 2 -14 -3 -17
-11 -3 -9 0 -11 9 -6 8 5 11 4 6 -1 -5 -5 -12 -9 -16 -9 -14 0 -150 -172 -143
-180 4 -5 2 -5 -4 -2 -6 3 -44 -28 -85 -70 -41 -42 -65 -70 -54 -62 18 13 19
13 6 -3 -7 -10 -17 -15 -22 -13 -4 3 -37 -18 -73 -47 -55 -43 -64 -54 -54 -67
10 -13 10 -14 -2 -4 -11 10 -21 8 -51 -9 -21 -12 -35 -26 -32 -32 3 -6 3 -8
-2 -4 -11 10 -47 -11 -40 -22 4 -6 -1 -7 -11 -3 -13 5 -15 3 -9 -7 5 -9 4 -11
-3 -6 -15 9 -73 -24 -65 -37 3 -6 1 -7 -4 -4 -6 4 -48 -10 -94 -32 -119 -54
-209 -86 -324 -116 -232 -60 -167 -58 -1570 -62 l-1290 -4 5 123 5 123 1269 2
c1228 2 1272 3 1387 23 177 30 458 128 442 153 -3 6 -1 7 5 3 15 -9 115 42
107 54 -4 6 1 7 11 3 13 -5 15 -3 9 7 -5 8 -4 11 2 7 11 -7 133 69 132 81 -1
4 -1 14 0 22 1 13 2 13 11 0 10 -15 12 -14 97 64 27 25 31 32 20 45 -10 14
-10 14 4 4 13 -10 22 -5 57 30 24 24 39 47 35 52 -5 4 -3 5 4 1 14 -8 126 131
116 147 -3 5 -1 7 5 3 13 -8 84 104 77 122 -3 7 0 10 5 7 13 -8 100 175 140
294 55 162 72 269 77 471 4 157 2 203 -16 308 -24 141 -60 274 -72 266 -5 -3
-6 2 -3 10 8 20 -55 168 -68 159 -7 -3 -8 -1 -4 5 12 19 -71 167 -157 280 -34
45 -42 51 -56 40 -14 -11 -14 -11 -3 4 11 14 8 22 -20 54 -57 66 -122 123
-132 117 -5 -3 -6 -1 -2 5 7 11 -63 74 -75 66 -4 -2 -11 1 -15 7 -5 8 -2 10 7
5 8 -4 -2 6 -21 23 -19 17 -41 29 -47 26 -7 -2 -12 1 -10 8 1 7 -6 11 -15 11
-10 -1 -15 2 -13 7 6 9 -29 31 -39 24 -3 -3 -4 -2 -1 2 8 10 -74 55 -87 47 -6
-4 -8 -3 -5 3 15 25 -287 143 -453 177 -113 23 -330 39 -346 25 -9 -8 -14 -35
-14 -80 0 -63 -9 -85 -25 -59 -4 6 -12 7 -18 4 -7 -4 -9 -4 -5 0 11 13 -80 86
-100 80 -12 -4 -13 -3 -4 3 17 12 -21 49 -39 37 -7 -4 -10 -3 -6 3 8 13 -25
44 -50 47 -10 2 -18 8 -18 15 0 17 -35 42 -48 34 -6 -3 -7 -1 -3 6 4 6 0 14
-8 17 -9 3 -16 11 -15 18 0 6 75 72 167 147 l167 137 5 -77 5 -76 143 -12z
m-450 -68 c-3 -3 -9 2 -12 12 -6 14 -5 15 5 6 7 -7 10 -15 7 -18z m1247 -143
c-3 -3 -11 0 -18 7 -9 10 -8 11 6 5 10 -3 15 -9 12 -12z m-1885 -13 c0 -5 4
-7 10 -4 5 3 7 0 4 -8 -3 -8 13 -51 35 -96 23 -44 41 -83 41 -85 0 -2 -36 -25
-80 -51 -44 -25 -78 -50 -75 -55 3 -5 0 -12 -6 -16 -8 -5 -9 -3 -4 6 5 8 3 11
-6 8 -8 -3 -13 -11 -11 -17 1 -7 -1 -10 -6 -7 -17 10 -144 -92 -135 -108 3 -6
2 -8 -2 -3 -5 4 -26 -9 -47 -30 -31 -30 -35 -39 -25 -52 10 -14 10 -14 -4 -3
-13 10 -18 10 -28 -1 -6 -8 -7 -17 -3 -21 4 -4 0 -6 -8 -4 -8 2 -14 -3 -12
-10 1 -8 -1 -11 -6 -8 -8 5 -76 -74 -131 -153 -20 -27 -21 -35 -10 -43 11 -8
11 -9 -3 -5 -19 7 -63 -57 -52 -75 4 -6 2 -8 -3 -5 -13 8 -26 -20 -16 -35 3
-6 1 -8 -4 -5 -12 8 -26 -20 -17 -34 3 -5 0 -8 -6 -7 -17 4 -104 -215 -130
-326 -12 -49 -19 -101 -15 -115 4 -18 3 -22 -4 -12 -15 23 -26 -106 -25 -299
0 -261 43 -445 156 -679 67 -140 101 -194 113 -183 5 4 5 2 2 -4 -10 -17 73
-125 173 -226 67 -68 92 -87 106 -82 14 4 15 3 5 -4 -10 -7 -2 -18 34 -46 26
-19 52 -33 56 -30 5 3 8 0 7 -8 -2 -7 5 -12 14 -12 10 1 16 -3 15 -8 -3 -14
140 -99 157 -92 7 3 17 1 21 -5 4 -7 -1 -9 -12 -6 -60 18 189 -96 264 -120 51
-17 93 -33 93 -38 0 -4 -142 -7 -315 -7 -173 1 -314 5 -312 9 2 8 -117 101
-129 101 -3 0 -2 -6 2 -12 4 -8 3 -10 -2 -5 -5 5 -10 13 -10 18 -3 22 -5 23
-15 9 -9 -13 -10 -12 -5 2 3 12 -7 27 -33 47 -21 17 -41 28 -45 26 -3 -3 -4
-2 -1 2 8 11 -57 73 -69 66 -6 -3 -8 -3 -4 2 9 9 -70 107 -81 100 -4 -2 -8 1
-8 8 0 18 -100 147 -108 139 -4 -4 -5 -2 -3 4 4 13 -83 164 -92 159 -3 -2 -6
4 -7 13 -1 17 -92 223 -102 232 -3 3 -7 12 -7 20 -1 8 -13 54 -27 102 -115
389 -101 810 39 1186 19 51 32 97 28 104 -4 6 -3 8 3 5 13 -8 44 58 37 80 -4
13 -3 15 4 5 7 -11 10 -10 16 3 3 9 4 20 1 25 -3 4 2 11 11 14 9 4 14 13 10
22 -3 8 -2 13 3 10 5 -3 18 12 30 34 11 22 19 40 17 40 -2 0 9 14 25 32 17 17
28 37 25 44 -3 8 -1 13 4 11 13 -3 90 104 83 116 -3 6 -1 7 5 3 11 -7 55 47
47 58 -3 3 -2 4 2 1 9 -7 174 156 168 166 -3 4 3 6 13 5 9 0 16 5 15 11 -2 7
3 12 10 10 6 -1 11 4 9 11 -1 8 1 11 6 8 11 -7 148 93 144 106 -1 5 2 7 7 4 5
-3 42 14 82 39 73 44 109 55 109 34z m1964 -30 c-3 -5 -10 -7 -15 -3 -5 3 -7
10 -3 15 3 5 10 7 15 3 5 -3 7 -10 3 -15z m-757 -15 c-3 -3 -12 -4 -19 -1 -8
3 -5 6 6 6 11 1 17 -2 13 -5z m1314 -501 c13 -16 12 -17 -3 -4 -17 13 -22 21
-14 21 2 0 10 -8 17 -17z m-311 -43 c0 -5 -2 -10 -4 -10 -3 0 -8 5 -11 10 -3
6 -1 10 4 10 6 0 11 -4 11 -10z m-1004 -146 c55 -14 135 -43 178 -64 60 -30
82 -37 88 -27 6 8 8 6 6 -8 -2 -14 2 -20 14 -19 10 1 16 -2 15 -5 -1 -4 25
-30 58 -58 81 -68 147 -140 194 -212 21 -33 41 -58 44 -55 3 3 8 0 13 -7 5 -8
3 -10 -6 -4 -7 4 -11 4 -8 -1 2 -5 12 -26 21 -46 10 -21 22 -38 28 -38 5 0 8
-4 4 -9 -3 -5 6 -43 19 -83 13 -40 29 -116 36 -168 32 -273 -57 -542 -249
-752 -28 -30 -47 -59 -43 -63 4 -5 2 -5 -5 -1 -7 4 -38 -14 -72 -42 -70 -56
-197 -122 -291 -151 -158 -49 -359 -53 -515 -10 -44 12 -88 22 -97 22 -9 1
-15 3 -13 6 7 7 -91 49 -111 48 -10 -1 -19 3 -19 10 0 16 -87 73 -99 66 -5 -3
-6 -1 -3 4 6 9 -55 65 -64 60 -2 -1 -3 0 -2 2 6 9 -20 30 -30 24 -5 -3 -7 -1
-4 4 4 6 -3 19 -14 29 -12 11 -39 45 -61 76 -23 32 -45 55 -51 51 -5 -3 -8 -2
-4 3 3 5 -12 44 -33 87 -21 43 -40 72 -42 65 -3 -7 -5 3 -5 21 0 19 -5 37 -11
39 -7 2 -10 7 -7 12 3 5 -2 37 -10 72 -26 112 -30 242 -10 359 10 57 19 114
19 126 1 11 4 19 9 16 4 -2 7 1 7 7 0 7 19 51 42 99 23 47 42 92 41 99 -1 7 2
11 5 8 6 -7 53 60 56 80 1 8 5 13 8 12 12 -6 49 36 43 49 -3 8 0 11 6 7 13 -8
81 55 73 68 -3 5 0 7 8 6 7 -2 12 3 10 10 -1 8 2 11 8 7 6 -4 27 7 48 23 20
16 56 40 80 54 23 13 39 28 35 33 -5 4 -3 5 4 2 6 -4 46 7 88 24 109 43 190
57 341 58 111 1 147 -3 230 -25z m-2246 -844 c0 -5 -2 -10 -4 -10 -3 0 -8 5
-11 10 -3 6 -1 10 4 10 6 0 11 -4 11 -10z m1160 -484 c0 -3 -4 -8 -10 -11 -5
-3 -10 -1 -10 4 0 6 5 11 10 11 6 0 10 -2 10 -4z m160 -236 c0 -5 -5 -10 -11
-10 -5 0 -7 5 -4 10 3 6 8 10 11 10 2 0 4 -4 4 -10z m2411 -163 c-10 -9 -11
-8 -5 6 3 10 9 15 12 12 3 -3 0 -11 -7 -18z m-3486 -127 c3 -5 1 -10 -4 -10
-6 0 -11 5 -11 10 0 6 2 10 4 10 3 0 8 -4 11 -10z m495 -192 c0 -4 -4 -8 -9
-8 -6 0 -12 4 -15 8 -3 5 1 9 9 9 8 0 15 -4 15 -9z m2711 -131 c-10 -9 -11 -8
-5 6 3 10 9 15 12 12 3 -3 0 -11 -7 -18z m522 -260 c5 3 7 1 4 -4 -8 -12 89
-90 105 -85 5 1 7 -2 3 -7 -6 -10 34 -37 48 -33 5 1 6 -2 3 -7 -7 -11 20 -35
32 -27 6 3 16 -2 23 -12 13 -16 12 -16 -6 -3 -11 7 -7 2 8 -13 16 -14 34 -23
40 -20 7 4 9 3 4 -1 -4 -5 1 -17 10 -27 14 -15 14 -19 3 -16 -8 2 -14 -2 -13
-8 1 -7 -5 -11 -15 -10 -9 0 -16 -5 -14 -12 1 -6 -4 -11 -10 -10 -7 2 -12 -3
-10 -10 1 -8 -2 -11 -8 -7 -13 8 -101 -65 -93 -78 4 -6 1 -7 -6 -2 -15 9 -73
-43 -64 -58 3 -6 1 -7 -6 -3 -7 5 -30 -7 -56 -29 l-45 -36 0 69 c0 46 -5 73
-13 81 -10 8 -208 12 -678 13 -577 3 -658 5 -619 17 94 28 220 83 213 94 -4 6
-1 7 6 3 7 -5 47 10 94 34 88 45 115 64 83 58 -10 -2 -21 4 -23 12 -3 9 -1 11
4 5 4 -5 17 -10 28 -10 11 0 27 5 35 10 9 6 182 12 440 15 l425 5 3 73 3 73
26 -20 c14 -12 30 -18 36 -14z m-79 -385 c3 -5 -1 -9 -9 -9 -8 0 -12 4 -9 9 3
4 7 8 9 8 2 0 6 -4 9 -8z m-4674 -868 c0 -8 -19 -13 -24 -6 -3 5 1 9 9 9 8 0
15 -2 15 -3z"/>
<path d="M2980 3714 c-116 -23 -265 -78 -254 -95 3 -5 -1 -6 -9 -4 -16 7 -110
-63 -102 -76 3 -5 0 -6 -7 -4 -19 7 -72 -50 -63 -66 5 -7 4 -10 -3 -6 -23 15
-107 -117 -148 -235 -34 -97 -43 -269 -20 -378 25 -117 131 -320 158 -304 6 4
8 3 5 -3 -4 -6 3 -19 16 -29 21 -19 21 -19 7 1 -8 11 0 7 18 -9 34 -32 43 -47
15 -25 -15 11 -15 10 1 -8 10 -13 23 -20 28 -17 4 3 7 0 6 -8 -2 -7 5 -12 14
-12 10 1 16 -2 13 -6 -8 -13 108 -81 128 -76 9 2 15 1 12 -4 -6 -10 24 -22 36
-14 5 3 9 1 9 -4 0 -35 272 -55 392 -28 118 26 318 132 301 159 -3 6 -2 7 4 4
13 -8 56 37 46 47 -5 4 -1 6 7 4 8 -2 14 3 12 10 -1 8 2 11 7 8 12 -8 73 75
67 91 -3 7 0 12 6 10 18 -3 77 142 93 228 18 91 19 179 4 261 -16 87 -40 155
-52 147 -6 -3 -7 -1 -3 5 8 14 -42 113 -80 157 -14 17 -22 24 -18 16 5 -9 3
-12 -5 -7 -6 4 -9 11 -6 16 7 11 -79 95 -140 136 -51 35 -72 43 -59 22 4 -7 3
-8 -5 -4 -6 4 -9 11 -7 15 7 10 -63 43 -75 36 -5 -4 -9 -2 -9 3 0 28 -255 62
-340 46z m123 -11 c-7 -2 -21 -2 -30 0 -10 3 -4 5 12 5 17 0 24 -2 18 -5z
m591 -359 c3 -8 2 -12 -4 -9 -6 3 -10 10 -10 16 0 14 7 11 14 -7z m-236 -29
c16 -13 31 -22 34 -20 3 3 5 -1 6 -7 1 -7 4 -33 7 -58 5 -36 2 -52 -16 -80
-13 -19 -23 -38 -24 -42 0 -3 -4 -10 -9 -15 -6 -5 -6 -2 -1 7 8 13 6 13 -8 1
-9 -7 -14 -18 -10 -24 3 -5 2 -7 -4 -4 -10 6 -90 -69 -85 -81 1 -4 -1 -7 -5
-7 -17 0 -33 -17 -27 -27 4 -6 2 -8 -3 -5 -13 8 -36 -17 -25 -28 4 -5 2 -5 -4
-2 -10 6 -67 -44 -65 -57 1 -3 -2 -6 -5 -5 -12 2 -63 -55 -57 -64 3 -6 1 -7
-4 -4 -11 7 -31 -10 -32 -28 -1 -5 -5 -10 -10 -10 -12 0 -26 -14 -26 -26 0 -5
-4 -9 -10 -10 -5 0 -17 -7 -25 -14 -46 -42 -140 -54 -177 -23 -7 5 -17 7 -23
3 -6 -4 -9 -1 -8 7 2 7 -3 12 -9 11 -7 -2 -12 3 -10 10 1 6 -4 11 -10 10 -7
-2 -12 0 -11 5 3 7 -95 102 -105 102 -4 0 -4 -8 0 -17 3 -10 3 -15 -1 -11 -4
3 -9 12 -10 20 -1 7 -12 29 -24 48 -18 29 -22 47 -20 101 2 44 7 66 15 66 10
0 10 -4 1 -16 -8 -11 -5 -10 9 2 13 11 19 26 16 35 -3 12 -2 13 4 4 7 -9 17
-10 41 -1 45 16 87 -1 156 -63 l58 -51 158 158 c88 87 156 163 153 168 -3 6
-2 7 4 4 6 -4 21 5 34 19 47 51 119 59 167 19z m-57 -278 c-6 -8 -7 -18 -3
-22 4 -5 1 -5 -6 -1 -10 6 -10 11 -1 22 6 8 14 14 16 14 3 0 0 -6 -6 -13z"/>
</g>
</svg>
